<svg width="14" height="13" viewBox="0 0 14 13" fill="none" xmlns="http://www.w3.org/2000/svg">
<path d="M10.7065 13C10.5999 13.0004 10.4947 12.9753 10.3998 12.9267L6.99984 11.1467L3.59984 12.9267C3.48944 12.9847 3.36496 13.0106 3.24056 13.0015C3.11616 12.9923 2.99683 12.9484 2.89613 12.8748C2.79543 12.8012 2.7174 12.7008 2.67092 12.585C2.62443 12.4693 2.61136 12.3428 2.63318 12.22L3.29984 8.46665L0.553175 5.79999C0.46748 5.71447 0.406689 5.60723 0.377327 5.48978C0.347964 5.37233 0.351138 5.2491 0.386508 5.13332C0.425148 5.01484 0.496226 4.90956 0.591675 4.82943C0.687124 4.7493 0.803124 4.69753 0.926509 4.67999L4.72651 4.12665L6.39984 0.706655C6.45443 0.593941 6.53967 0.498883 6.64578 0.432371C6.7519 0.365858 6.8746 0.330582 6.99984 0.330582C7.12508 0.330582 7.24779 0.365858 7.3539 0.432371C7.46002 0.498883 7.54525 0.593941 7.59984 0.706655L9.29317 4.11999L13.0932 4.67332C13.2166 4.69086 13.3326 4.74263 13.428 4.82276C13.5235 4.90289 13.5945 5.00817 13.6332 5.12665C13.6685 5.24244 13.6717 5.36567 13.6424 5.48312C13.613 5.60057 13.5522 5.7078 13.4665 5.79332L10.7198 8.45999L11.3865 12.2133C11.4103 12.3383 11.3978 12.4675 11.3506 12.5856C11.3033 12.7038 11.2233 12.8059 11.1198 12.88C10.9991 12.9646 10.8538 13.0068 10.7065 13Z" fill="#E5E5E5"/>
</svg>
