<svg width="32" height="32" viewBox="0 0 32 32" fill="none" xmlns="http://www.w3.org/2000/svg">
<rect width="32" height="32" fill="white"/>
<path d="M16.5748 6V25H22.2871V10.2224L16.5748 6ZM14.3123 7.66699V25H15.5001V6.77817L14.3123 7.66699ZM12.0499 25H13.2375V8.50027L12.0499 9.33341V25ZM9.78734 25H10.9751V10.1671L9.78734 11.0559V25ZM23.3617 14.5002V25H29.0752V18.7223L23.3617 14.5002ZM7.52479 16.1669V25H8.71272V15.3334L7.52479 16.1669ZM5.2624 25H6.45017V17.0003L5.2624 17.8337V25ZM3 25H4.18778V18.6667L3 19.5557V25Z" fill="#24AB70"/>
</svg>
